# xmcd
#
# Track frame offsets:
#	150
#	20000
#	33059
#	49167
#	63518
#	89416
#	108777
#	128842
#	145422
#	161284
#	181632
#	194522
#	210415
#	224545
#	254215
#
# Disc length: 3586 seconds
#
# Revision: 1
# Processed by: cddbd v1.4PL0 Copyright (c) Steve Scherf et al.
# Submitted via: audiograbber 1.80.04
#
DISCID=d70e000f
DTITLE=Lupillo Rivera - At The Universal Amphitheatre VOL.2
DYEAR=2002
DGENRE=Other
TTITLE0=La Misma (Live)
TTITLE1=El Rey (Live)
TTITLE2=Ella (Live)
TTITLE3=Copa Tras Copa (Live)
TTITLE4=Baraja De Oro (Live)
TTITLE5=Las Nieves De Enero (Live)
TTITLE6=La Corona De Mi Padre (Live)
TTITLE7=Señorita Cantinera (live)
TTITLE8=Yo No Fui (Live)
TTITLE9=Tu Y Las Nubes (Live)
TTITLE10=Arboles De La Barranca (Live)
TTITLE11=Despreciado (Live - Con Mariachi Viva Mexico)
TTITLE12=Mi Gusto Es (Live)
TTITLE13=Mexico Lindo Y Querido (Live)
TTITLE14=Despreciado (Live)
EXTD=
EXTT0=
EXTT1=
EXTT2=
EXTT3=
EXTT4=
EXTT5=
EXTT6=
EXTT7=
EXTT8=
EXTT9=
EXTT10=
EXTT11=
EXTT12=
EXTT13=
EXTT14=
PLAYORDER=
